<svg width="175" height="35" viewBox="0 0 175 35" fill="none" xmlns="http://www.w3.org/2000/svg">
  <path fill-rule="evenodd" clip-rule="evenodd"
        d="M38.8419 15.2865C38.8573 22.9513 38.8687 24.0859 38.9336 24.4348C39.1773 25.7449 39.6149 26.6361 40.3771 27.3742C41.3661 28.3321 42.6241 28.7641 44.4231 28.7634C45.9906 28.7629 47.1596 28.4154 48.1446 27.6573C48.8124 27.1432 49.3015 26.4385 49.6405 25.5018C50.0145 24.468 49.9953 25.023 49.9953 15.2517V6.55963L48.246 6.54749L46.4967 6.5353L46.4839 15.3091L46.471 24.0828L46.3636 24.3572C45.9919 25.3074 45.3435 25.6844 44.1824 25.6253C43.7832 25.6049 43.6882 25.5822 43.3765 25.4323C42.8612 25.1844 42.6155 24.8784 42.4051 24.2221C42.339 24.0159 42.329 23.0189 42.3159 15.2633L42.3011 6.53645H40.5627H38.8242L38.8419 15.2865ZM53.7194 6.56608C53.6785 6.60585 53.6761 25.9126 53.7168 27.3363L53.7488 28.4573L55.4202 28.4721C56.3395 28.4802 57.1086 28.4745 57.1294 28.4592C57.1503 28.4441 57.1805 26.7074 57.1967 24.5999L57.2261 20.7682L57.4446 20.7651C59.1596 20.7403 60.1934 20.6428 60.9017 20.4393C62.1902 20.0689 63.323 19.1283 63.8273 18.01C63.9994 17.6281 64.225 16.885 64.3199 16.3874C64.4202 15.8614 64.426 15.7102 64.4256 13.606C64.4252 11.482 64.4202 11.3555 64.3163 10.8245C64.1966 10.2129 63.9461 9.44799 63.7243 9.01659C63.0545 7.71398 61.698 6.84223 59.9774 6.60863C59.5446 6.54985 58.9163 6.53645 56.5978 6.53645C55.0314 6.53645 53.7362 6.54981 53.7194 6.56608ZM67.3549 17.4907V28.4499L69.0325 28.4745C69.9551 28.488 70.7374 28.4889 70.7708 28.4764C70.8195 28.4582 70.8316 27.6858 70.8316 24.611C70.8316 22.4975 70.837 20.7674 70.8435 20.7664C70.8501 20.7654 71.3591 20.7537 71.9747 20.7404C73.902 20.6989 74.8714 20.4768 75.8429 19.8542C76.7022 19.3034 77.2964 18.5403 77.6447 17.5402C78.0252 16.4473 78.0709 16.0206 78.0702 13.5614C78.0698 11.8638 78.0579 11.5379 77.9773 11.0331C77.6986 9.28625 77.0492 8.16963 75.8683 7.40649C75.3739 7.087 75.2865 7.04467 74.7608 6.86953C73.8498 6.56612 73.834 6.56492 70.4387 6.54739L67.3549 6.53149V17.4907ZM80.9759 17.4998V28.4636L85.0122 28.4673C87.2322 28.4694 89.7391 28.4904 89.7391 28.4904L90.5487 28.4868L90.5725 26.8776V25.3345L87.5126 25.3226L84.4526 25.3106V22.1568V19.0029L86.9649 19.0067C88.3466 19.0088 89.6667 19.0067 89.6667 19.0067V17.442L89.6657 15.8775L87.0592 15.8655L84.4526 15.8535V12.7711V9.68877H87.4956C89.923 9.68877 90.5433 9.67677 90.5619 9.62948C90.5748 9.59685 90.5825 8.89281 90.5789 8.06491L90.5725 6.55963L85.7742 6.54781L80.9759 6.53599V17.4998ZM94.1207 17.5V28.4636H95.8519H97.5832L97.6176 26.9327C97.6366 26.0908 97.6365 24.1918 97.6175 22.7127L97.5829 20.0236L98.1732 20.0366L98.7634 20.0497L98.9199 20.6292C99.0059 20.9479 99.1711 21.5216 99.2869 21.904C99.8407 23.7321 100.376 25.5192 100.64 26.4239C100.8 26.972 101.002 27.65 101.089 27.9305L101.247 28.4404L102.994 28.4526C103.955 28.4593 104.741 28.4516 104.741 28.4356C104.741 28.3776 104.012 26.1042 103.739 25.3113C103.489 24.5826 103.019 23.1544 102.173 20.5512C102.014 20.062 101.884 19.6294 101.884 19.5897C101.884 19.5459 102.003 19.4647 102.188 19.3833C102.626 19.19 103.03 18.9089 103.429 18.5208C103.962 18.0017 104.228 17.5753 104.471 16.851C104.771 15.9557 104.836 15.3331 104.836 13.3746C104.836 11.308 104.763 10.6761 104.396 9.61084C104.179 8.98149 103.885 8.49571 103.445 8.04173C102.658 7.22978 101.72 6.77979 100.459 6.60863C100.026 6.54976 99.393 6.53645 97.0242 6.53645H94.1207V17.5ZM59.713 9.79748C60.1999 9.9487 60.6022 10.3223 60.7859 10.7939C60.8713 11.013 60.8959 11.2208 60.9354 12.053C60.9879 13.1606 60.9506 15.7974 60.8773 16.1514C60.766 16.6897 60.4232 17.1372 59.9495 17.3628C59.7405 17.4623 59.5955 17.4872 58.9927 17.5272C58.6019 17.5531 58.0358 17.568 57.7345 17.5603L57.1868 17.5464L57.1745 13.6755C57.1678 11.5466 57.1734 9.7762 57.187 9.74139C57.2247 9.64543 59.3773 9.69322 59.713 9.79748ZM73.0071 9.73893C73.9198 9.86183 74.4547 10.4432 74.556 11.4226C74.58 11.6546 74.5926 12.7936 74.5839 13.9537C74.5684 16.0215 74.5659 16.069 74.4576 16.3692C74.2477 16.9506 73.801 17.3584 73.2436 17.4771C73.1089 17.5058 72.514 17.5415 71.9216 17.5564L70.8445 17.5835L70.8177 15.9192C70.7949 14.5019 70.7993 9.92292 70.8236 9.74672C70.834 9.67181 72.4653 9.66601 73.0071 9.73893ZM99.812 9.73698C100.646 9.85311 101.198 10.4148 101.32 11.2733C101.347 11.4677 101.359 12.4352 101.348 13.6247C101.33 15.495 101.321 15.6665 101.233 15.9243C101.032 16.5106 100.702 16.8464 100.162 17.0154C99.8574 17.1109 99.7312 17.1206 98.7482 17.1247L97.6688 17.1292L97.6566 13.409L97.6444 9.68877L98.5615 9.6897C99.0659 9.69021 99.6286 9.71149 99.812 9.73698Z"
        fill="#242327"/>
  <path
    d="M109.257 7.73759C110.009 6.95006 110.796 6.56664 112.148 6.3292C112.526 6.26281 112.968 6.21905 113.287 6.21636C114.219 6.20848 115.504 6.46818 116.195 6.80432C116.945 7.16896 117.584 7.79322 117.988 8.55557C118.579 9.6701 118.79 10.7869 118.79 12.8052L118.791 13.5805L117.088 13.5932C116.151 13.6002 115.359 13.5985 115.326 13.5894C115.28 13.5767 115.266 13.2905 115.266 12.361C115.265 11.0054 115.228 10.6754 115.026 10.2642C114.737 9.67557 114.26 9.41369 113.405 9.37554C112.474 9.33391 111.931 9.60788 111.569 10.3026C111.369 10.6878 111.313 11.1172 111.314 12.2773C111.314 13.1636 111.329 13.3877 111.408 13.7106C111.661 14.7388 112.118 15.1109 114.042 15.855C115.326 16.3519 115.643 16.4892 116.089 16.7421C117.375 17.4726 118.13 18.3838 118.569 19.735C118.749 20.2904 118.84 20.9674 118.871 21.9967C118.979 25.5939 117.823 27.7834 115.447 28.4828C114.027 28.901 112.404 28.8842 111.031 28.437C110.28 28.1924 109.824 27.9099 109.247 27.331C108.594 26.6754 108.139 25.7076 107.927 24.5206C107.795 23.7852 107.732 21.2953 107.844 21.2266C107.879 21.2048 108.664 21.1866 109.587 21.1862L111.266 21.1855L111.266 22.4487C111.266 24.0112 111.327 24.4261 111.625 24.924C111.776 25.1754 111.981 25.3406 112.361 25.5149C112.657 25.6507 112.698 25.6571 113.29 25.6576C114.065 25.6582 114.342 25.5683 114.731 25.1891C115.256 24.6787 115.387 24.1615 115.382 22.6226C115.378 21.3927 115.306 20.9585 115.02 20.4354C114.611 19.6888 114.28 19.485 111.837 18.4734C110.593 17.9582 110.077 17.6551 109.446 17.0677C108.754 16.4248 108.24 15.4878 108.03 14.4868C107.709 12.9636 107.838 10.5777 108.308 9.32603C108.553 8.67331 108.87 8.14317 109.257 7.73759Z"
    fill="#6A3EE7"/>
  <path
    d="M121.886 6.58476L122.827 6.5722C123.344 6.56529 125.493 6.55964 127.601 6.55964H131.435L131.459 8.08944C131.472 8.93083 131.476 9.63519 131.468 9.65466C131.459 9.67413 130.081 9.68919 128.405 9.68808C126.729 9.68702 125.341 9.6962 125.321 9.70853C125.3 9.72081 125.287 9.85182 125.291 9.99956C125.295 10.1473 125.302 11.5355 125.307 13.0845L125.315 15.9007H127.935H130.554L130.555 17.2103C130.555 17.9306 130.568 18.6294 130.585 18.7633L130.615 19.0067H127.934H125.253L125.284 19.5514C125.301 19.8509 125.316 21.2347 125.317 22.6263C125.319 24.0179 125.332 25.2018 125.347 25.2571L125.374 25.3577H128.416H131.459V26.6955C131.459 27.4314 131.473 28.1303 131.489 28.2487L131.52 28.4641L126.715 28.4523L121.91 28.4404L121.898 17.5126L121.886 6.58476Z"
    fill="#6A3EE7"/>
  <path
    d="M134.555 6.58328L139.234 6.57123C141.807 6.5646 144.29 6.55408 144.751 6.54782L145.589 6.53646L145.62 7.54474C145.637 8.09927 145.651 8.80854 145.651 9.1209L145.651 9.68878H143.722H141.793L141.794 19.083C141.795 24.2499 141.79 28.4825 141.783 28.4889C141.776 28.4953 140.999 28.487 140.058 28.4705L138.345 28.4404L138.341 27.5133C138.338 27.0033 138.332 22.7842 138.327 18.1375L138.317 9.68878H136.436C135.401 9.68878 134.554 9.67316 134.553 9.65401C134.548 9.55374 134.544 6.77576 134.549 6.68735L134.555 6.58328Z"
    fill="#6A3EE7"/>
  <path
    d="M148.652 6.58657L149.045 6.57095C149.261 6.56237 150.031 6.55106 150.757 6.54592L152.076 6.53646L152.095 15.1474C152.115 24.4909 152.102 24.0411 152.374 24.6181C152.441 24.7595 152.566 24.9532 152.652 25.0486C153.278 25.7423 154.75 25.8676 155.524 25.2931C155.956 24.9721 156.24 24.4594 156.321 23.8515C156.346 23.6665 156.365 19.8792 156.366 15.0592L156.367 6.59176L156.617 6.571C156.755 6.55955 157.526 6.54657 158.332 6.54212L159.796 6.534V15.1072C159.796 23.3203 159.792 23.7055 159.705 24.2775C159.558 25.2388 159.41 25.7229 159.082 26.3173C158.506 27.3618 157.679 28.04 156.516 28.4229C155.126 28.8807 153.44 28.8843 151.968 28.4326C151.481 28.283 151.142 28.1169 150.747 27.835C149.645 27.047 149.02 25.903 148.75 24.182C148.654 23.5682 148.652 23.4022 148.652 15.0717V6.58657Z"
    fill="#6A3EE7"/>
  <path fill-rule="evenodd" clip-rule="evenodd"
        d="M163.285 6.57076L162.987 6.58727L162.999 17.5103L163.011 28.4333L164.714 28.4536L166.416 28.4738V24.5978V20.7219L167.262 20.7215C169.7 20.7204 170.977 20.3673 172.03 19.4032C172.72 18.7716 173.218 17.8562 173.435 16.8211C173.629 15.8986 173.655 15.5278 173.655 13.7623C173.655 11.5524 173.581 10.756 173.293 9.86628C172.84 8.46911 171.886 7.44011 170.588 6.94941C169.594 6.57369 169.156 6.53442 166.085 6.54541C164.709 6.55032 163.449 6.56172 163.285 6.57076ZM169.955 10.649C169.719 10.1861 169.336 9.88677 168.82 9.76286C168.524 9.6917 167.633 9.65359 166.833 9.67798L166.369 9.69212L166.375 12.6921C166.379 14.3421 166.395 16.1197 166.411 16.6424L166.44 17.5928L167.488 17.5774C168.575 17.5615 168.916 17.5153 169.279 17.3353C169.647 17.1527 169.939 16.7561 170.115 16.2C170.195 15.9478 170.203 15.7255 170.203 13.6292C170.203 11.1736 170.199 11.1261 169.955 10.649Z"
        fill="#6A3EE7"/>
  <path
    d="M8.1082 4.28808V2.14678V0C8.1082 0 8.78182 0.323066 9.32947 0.630835L10.8705 1.49717C11.4599 1.82853 12.36 2.3329 12.8708 2.61795C14.7248 3.6527 18.3417 5.68238 19.0715 6.0976C19.6333 6.41724 19.8054 6.5361 19.7644 6.57601C19.7344 6.60522 19.6948 6.62914 19.6763 6.62914C19.6389 6.62914 19.5842 6.65941 17.8715 7.62685C16.4007 8.45767 16.0108 8.66605 15.9239 8.66767C15.8671 8.66869 15.6702 8.56429 14.7044 8.02089C14.6258 7.97666 14.3793 7.83569 14.1567 7.7076C13.934 7.57952 13.5804 7.38194 13.3709 7.2686C13.0201 7.07885 11.8607 6.43082 9.94179 5.35203C9.52269 5.11644 9.10477 4.88257 9.01309 4.83241C8.4672 4.53354 8.1082 4.28808 8.1082 4.28808Z"
    fill="#6A3EE7"/>
  <path
    d="M0.28418 8.6457V4.43244C0.28418 4.43244 1.17874 4.84224 2.77411 5.74084C3.52064 6.1613 4.37791 6.63989 4.67914 6.80437C4.98037 6.96885 5.24827 7.11909 5.27446 7.13819C5.30066 7.15734 5.98647 7.5441 6.79849 7.99766L9.3941 9.44768C10.9762 10.3317 13.1752 11.5593 14.5139 12.3059C15.1425 12.6565 15.7225 12.9822 15.8028 13.0297L15.9486 13.1161L16.4457 12.8337C16.7191 12.6784 17.8858 12.0251 19.0383 11.3819C21.2432 10.1513 26.2145 7.3659 26.9442 6.95211C27.18 6.81846 27.4425 6.68041 27.5276 6.64532L27.6824 6.58153V8.73211C27.6824 10.3968 27.669 10.8933 27.6229 10.9294C27.5902 10.955 27.0811 11.2463 26.4918 11.5766C25.9024 11.9069 24.4236 12.7372 23.2056 13.4217C20.8218 14.7613 19.7005 15.3901 17.467 16.6394L16.0386 17.4384L15.8511 17.3837C15.6628 17.3288 14.4555 16.6602 7.22712 12.608C5.0792 11.4039 2.3931 9.8993 2.3931 9.8993L0.28418 8.6457Z"
    fill="#6A3EE7"/>
  <path
    d="M12.6565 19.3637C13.94 18.647 15.1509 17.9623 15.3473 17.8423C15.5438 17.7221 15.7528 17.6221 15.8117 17.6199L15.9188 17.6159V18.6579C15.9188 19.6884 15.9176 19.7006 15.8117 19.7644C15.5986 19.8928 10.4142 22.7968 10.2656 22.8709C10.1818 22.9128 10.0771 22.947 10.033 22.947C9.98899 22.947 9.55821 22.7141 9.07581 22.4294C8.34114 21.9959 8.20912 21.9018 8.26274 21.8496C8.33047 21.7837 8.90388 21.4592 12.6565 19.3637Z"
    fill="#6A3EE7"/>
  <path
    d="M0.297563 26.2812V24.13V21.9787L0.505831 22.0684C0.777155 22.1852 1.75601 22.7117 2.65504 23.2242C3.04795 23.4483 3.94808 23.9545 4.65533 24.3492L6.56036 25.4123C6.90088 25.6023 7.51168 25.9425 7.91769 26.1683C8.3237 26.3941 8.95837 26.7526 9.32809 26.9649C9.69781 27.1772 10.0239 27.351 10.0527 27.351C10.0815 27.351 10.3045 27.239 10.5481 27.1021C10.7917 26.9652 11.2372 26.7184 11.538 26.5538C12.3729 26.0969 16.3783 23.8641 17.1474 23.4268C17.7978 23.057 17.9877 22.9875 18.0882 23.0825C18.1471 23.1382 19.475 23.8824 19.6456 23.9553C19.7176 23.9861 19.7765 24.0311 19.7765 24.0554C19.7765 24.0969 19.5285 24.2914 19.4756 24.2914C19.4487 24.2914 18.2843 24.9466 17.7286 25.2744C17.5322 25.3903 17.125 25.6198 16.8237 25.7844C16.5225 25.949 15.9974 26.2402 15.6569 26.4315C15.3164 26.6228 14.5984 27.0248 14.0614 27.3248C13.5244 27.6247 12.9887 27.9284 12.8708 27.9997C12.7529 28.0709 12.5225 28.1961 12.3588 28.2779C12.1951 28.3597 12.0611 28.4427 12.0611 28.4623C12.0611 28.5029 12.1714 28.5663 14.3296 29.7656C15.1974 30.2478 15.9328 30.6424 15.9638 30.6424C15.9948 30.6424 16.5921 30.321 17.2911 29.9283C19.3423 28.7758 25.1154 25.5421 25.3487 25.4148C25.8563 25.1381 26.596 24.7216 27.0157 24.4762C27.2645 24.3307 27.5159 24.197 27.5743 24.1791L27.6805 24.1467L27.6934 26.2887L27.7062 28.4307L27.5157 28.5484C27.2003 28.7433 24.799 30.0927 18.1572 33.8075C17.5679 34.1371 17.0107 34.4489 16.919 34.5004L16.3904 34.797C16.1914 34.9086 15.9953 35 15.9547 35C15.8628 35 15.5031 34.8168 14.8371 34.431C14.5545 34.2672 13.9483 33.9247 13.4899 33.6699C12.247 32.9789 12.1119 32.8971 12.088 32.8212C12.0759 32.7829 12.0618 32.3344 12.0565 31.8245C12.0462 30.8248 12.0374 30.7351 11.9492 30.7351C11.9174 30.7351 11.4973 30.9541 11.0156 31.2219C10.534 31.4896 10.0989 31.7086 10.0486 31.7086C9.97285 31.7086 9.60636 31.5265 9.29884 31.3361C9.18464 31.2654 7.19783 30.155 6.43158 29.7336C6.04638 29.5218 5.6499 29.2974 5.5505 29.2349C5.45106 29.1724 4.91965 28.8716 4.36957 28.5664C3.81949 28.2611 3.03724 27.8246 2.63123 27.5964C2.22522 27.3681 1.79659 27.1286 1.67871 27.0641C1.30456 26.8595 1.14135 26.7676 0.714289 26.5214L0.297563 26.2812Z"
    fill="#6A3EE7"/>
</svg>
